<svg width="20" height="25" viewBox="0 0 20 25" fill="none" xmlns="http://www.w3.org/2000/svg">
<path d="M10 0C12.4864 0 14.871 0.98772 16.6291 2.74587C18.3873 4.50403 19.375 6.8886 19.375 9.375C19.375 12.585 17.625 15.195 15.8125 17.05C15.092 17.7799 14.3177 18.4547 13.4963 19.0687C12.7537 19.6262 11.0563 20.6713 11.0563 20.6713C10.7343 20.8542 10.3703 20.9505 10 20.9505C9.62967 20.9505 9.2657 20.8542 8.94375 20.6713C8.10132 20.1828 7.28673 19.6478 6.50375 19.0687C5.68225 18.4547 4.908 17.7799 4.1875 17.05C2.375 15.195 0.625 12.585 0.625 9.375C0.625 6.8886 1.61272 4.50403 3.37087 2.74587C5.12903 0.98772 7.5136 0 10 0Z" fill="white"/>
<path d="M3.4 18.3C3.71826 18.2072 4.06036 18.2446 4.35104 18.404C4.64172 18.5634 4.85717 18.8317 4.95 19.15C5.04283 19.4683 5.00542 19.8104 4.84602 20.101C4.68661 20.3917 4.41826 20.6072 4.1 20.7C3.475 20.8825 3.025 21.075 2.73625 21.25C3.03375 21.4288 3.50375 21.6287 4.15625 21.815C5.6 22.2275 7.66625 22.5 10 22.5C12.3337 22.5 14.4 22.2275 15.8437 21.815C16.4975 21.6287 16.9663 21.4288 17.2638 21.25C16.9763 21.075 16.5263 20.8825 15.9013 20.7C15.588 20.6031 15.3254 20.387 15.17 20.0982C15.0146 19.8095 14.9789 19.4712 15.0705 19.1564C15.1622 18.8416 15.3739 18.5754 15.66 18.4152C15.9461 18.255 16.2837 18.2136 16.6 18.3C17.435 18.5437 18.2 18.8562 18.7875 19.2575C19.3313 19.6313 20 20.2825 20 21.25C20 22.2288 19.315 22.885 18.7625 23.2588C18.165 23.6613 17.3838 23.975 16.53 24.2188C14.8075 24.7125 12.5 25 10 25C7.5 25 5.1925 24.7125 3.47 24.2188C2.61625 23.975 1.835 23.6613 1.2375 23.2588C0.685 22.8838 0 22.2288 0 21.25C0 20.2825 0.66875 19.6313 1.2125 19.2575C1.8 18.8562 2.565 18.5437 3.4 18.3ZM10 6.875C8.075 6.875 6.8725 8.95875 7.835 10.625C8.28125 11.3987 9.10625 11.875 10 11.875C11.925 11.875 13.1275 9.79125 12.165 8.125C11.9456 7.74496 11.63 7.42937 11.25 7.20995C10.8699 6.99053 10.4388 6.87501 10 6.875Z" fill="#F5090B"/>
</svg>
