<svg width="20" height="20" viewBox="0 0 20 20" fill="none" xmlns="http://www.w3.org/2000/svg">
<path d="M19.2407 17.0133C19.1155 17.5746 18.8051 18.0774 18.3595 18.4409C17.8726 18.9346 17.2925 19.3268 16.6528 19.5944C16.0131 19.8621 15.3266 19.9999 14.6331 20H14.3091C12.8537 19.921 11.4286 19.5526 10.1172 18.9164H10.1073C9.80323 18.7748 9.48921 18.6333 9.18516 18.4608C7.65435 17.6025 6.25027 16.5356 5.01319 15.2907C3.40777 13.7828 2.09033 11.9951 1.12534 10.0152C0.612493 8.93013 0.270187 7.7724 0.110513 6.58291C-0.124292 5.33781 0.0169528 4.05099 0.516245 2.88647C0.831455 2.36109 1.21644 1.88087 1.66067 1.45893C1.86056 1.23288 2.10494 1.05052 2.37853 0.923241C2.65213 0.795965 2.94904 0.726516 3.2507 0.719238C3.57878 0.755494 3.89638 0.856559 4.18508 1.01657C4.47378 1.17657 4.72782 1.39234 4.93245 1.65133C5.38802 2.14678 5.94428 2.66316 6.40086 3.13967L7.0289 3.75774C7.39774 4.08472 7.62603 4.5413 7.6669 5.03376C7.6669 5.48534 7.50042 5.92098 7.20036 6.25893C7.00603 6.49528 6.79974 6.72154 6.58229 6.93681L6.37992 7.14915C6.26229 7.2588 6.17257 7.39438 6.11675 7.54491C6.0669 7.69311 6.04696 7.84497 6.05693 8.00049C6.21743 8.43014 6.46964 8.82092 6.79463 9.14491C7.30204 9.83276 7.80846 10.4309 8.32485 11.0789C9.25888 12.1632 10.3674 13.084 11.6046 13.8034C11.7312 13.8961 11.8767 13.9579 12.0313 13.9848C12.1648 13.9948 12.3004 13.9748 12.426 13.925C12.7799 13.7166 13.0939 13.4495 13.3571 13.1344C13.711 12.701 14.2191 12.4216 14.7747 12.3549C15.3093 12.3622 15.8193 12.5808 16.1933 12.963C16.3956 13.1344 16.6179 13.3677 16.8313 13.591L17.1343 13.904L17.4483 14.2081L17.9857 14.7544C18.306 15.0388 18.6064 15.3429 18.8868 15.6665C19.168 16.0553 19.2946 16.5368 19.2407 17.0133ZM15.6061 10.076C15.4053 10.0739 15.2133 9.99323 15.0713 9.85122C14.9292 9.7092 14.8485 9.5172 14.8465 9.31637C14.8475 8.74294 14.7353 8.17494 14.5164 7.64496C14.2974 7.11498 13.976 6.63344 13.5705 6.22796C13.165 5.82248 12.6835 5.50105 12.1535 5.28209C11.6235 5.06313 11.0555 4.95096 10.4821 4.95201C10.2806 4.95201 10.0874 4.87198 9.94497 4.72952C9.80251 4.58706 9.72248 4.39385 9.72248 4.19238C9.72248 3.99092 9.80251 3.79771 9.94497 3.65525C10.0874 3.51279 10.2806 3.43276 10.4821 3.43276C11.2551 3.43158 12.0207 3.58296 12.7351 3.87822C13.4494 4.17348 14.0985 4.60682 14.6451 5.1534C15.1917 5.69997 15.625 6.34905 15.9203 7.06341C16.2155 7.77778 16.3669 8.5434 16.3657 9.31637C16.366 9.4162 16.3465 9.5151 16.3084 9.60738C16.2704 9.69966 16.2144 9.78351 16.1438 9.8541C16.0732 9.92469 15.9894 9.98063 15.8971 10.0187C15.8048 10.0568 15.7059 10.0763 15.6061 10.076Z" fill="white"/>
<path d="M19.1199 9.72112C18.9193 9.71905 18.7274 9.63849 18.5854 9.49669C18.4434 9.3549 18.3626 9.16314 18.3603 8.96249C18.3619 7.98545 18.1708 7.01768 17.7979 6.11457C17.4251 5.21146 16.8778 4.39073 16.1875 3.69935C15.4971 3.00796 14.6772 2.45949 13.7746 2.08532C12.8721 1.71115 11.9046 1.51862 10.9275 1.51875C10.8255 1.52245 10.7238 1.50555 10.6285 1.46907C10.5332 1.43258 10.4462 1.37726 10.3727 1.3064C10.2992 1.23555 10.2408 1.15061 10.2009 1.05667C10.161 0.962723 10.1404 0.861698 10.1404 0.759626C10.1404 0.657555 10.161 0.55653 10.2009 0.462586C10.2408 0.368641 10.2992 0.283705 10.3727 0.212848C10.4462 0.141992 10.5332 0.0866695 10.6285 0.0501847C10.7238 0.0137 10.8255 -0.00319859 10.9275 0.000498468C12.104 0.000497738 13.2689 0.232379 14.3556 0.682883C15.4424 1.13339 16.4297 1.79368 17.2611 2.62601C18.0925 3.45834 18.7517 4.44638 19.201 5.53364C19.6503 6.6209 19.8809 7.78606 19.8796 8.96249C19.8798 9.06232 19.8603 9.16122 19.8223 9.2535C19.7842 9.34578 19.7282 9.42963 19.6576 9.50022C19.5871 9.57081 19.5032 9.62675 19.4109 9.66483C19.3187 9.70291 19.2198 9.72139 19.1199 9.72112Z" fill="#F5090B"/>
</svg>
