<svg xmlns="http://www.w3.org/2000/svg" fill="none" viewBox="12 16 53 53"><rect x="12" y="16" width="53" height="53" rx="4" fill="#222222"/><rect x="12" y="16" width="53" height="53" rx="4" fill="url(#paint0_radial_38_1900)"/><g filter="url(#filter0_d_38_1900)"><path d="M34.4646 33.896H43.5022H43.5034C44.0212 33.896 44.4409 33.4761 44.4409 32.9585C44.4409 32.8772 44.4307 32.7986 44.4114 32.7236L43.4172 27.7537C43.3296 27.3154 42.9448 27 42.498 27H35.4688C35.022 27 34.6372 27.3154 34.5496 27.7537L33.5454 32.7746C33.4902 33.05 33.5618 33.3354 33.7397 33.5527C33.9177 33.77 34.1838 33.896 34.4646 33.896Z" fill="#00EEBB"/><path d="M47.5188 31.0166H45.9819L46.2424 32.3193C46.2913 32.5286 46.3159 32.7432 46.3159 32.9585C46.3159 34.5093 45.0542 35.771 43.5022 35.771H34.4646C33.6187 35.771 32.8259 35.3957 32.2898 34.7417C31.7534 34.0874 31.5408 33.2363 31.7068 32.407L31.9849 31.0168H30.448C28.5469 31.0168 27 32.5635 27 34.4646V55.5522C27 57.4533 28.5469 58.9999 30.448 58.9999H47.5188C49.4199 58.9999 50.9668 57.4533 50.9668 55.5522V34.4646C50.9668 32.5635 49.4199 31.0166 47.5188 31.0166ZM32.9585 37.979H39.9875C40.5054 37.979 40.925 38.3989 40.925 38.9165C40.925 39.4343 40.5054 39.854 39.9875 39.854H32.9585C32.4407 39.854 32.021 39.4343 32.021 38.9165C32.021 38.3989 32.4407 37.979 32.9585 37.979ZM33.8958 43.9372C33.8958 44.1841 33.7957 44.426 33.6213 44.6003C33.447 44.7746 33.2051 44.8747 32.9583 44.8747C32.7119 44.8747 32.47 44.7746 32.2957 44.6003C32.1213 44.426 32.0212 44.1841 32.0212 43.9372C32.0212 43.6904 32.1213 43.4492 32.2957 43.2746C32.47 43.0998 32.7119 42.9997 32.9583 42.9997C33.2051 42.9997 33.447 43.0998 33.6213 43.2746C33.7957 43.4492 33.8958 43.6904 33.8958 43.9372ZM33.6213 54.6423C33.447 54.8166 33.2051 54.9165 32.9587 54.9165C32.7119 54.9165 32.47 54.8166 32.2957 54.6423C32.1213 54.4672 32.0208 54.226 32.0208 53.979C32.0208 53.7324 32.1213 53.4909 32.2957 53.3161C32.47 53.1416 32.7119 53.0415 32.9587 53.0415C33.2051 53.0415 33.447 53.1416 33.6213 53.3161C33.7957 53.4909 33.8958 53.7324 33.8958 53.979C33.8958 54.226 33.7957 54.4672 33.6213 54.6423ZM33.6213 49.6211C33.447 49.7959 33.2051 49.896 32.9583 49.896C32.7119 49.896 32.47 49.7959 32.2957 49.6211C32.1206 49.4465 32.0208 49.2053 32.0208 48.9585C32.0208 48.7116 32.1206 48.4697 32.2957 48.2954C32.47 48.1211 32.7119 48.021 32.9583 48.021C33.2051 48.021 33.447 48.1211 33.6213 48.2954C33.7957 48.4697 33.8962 48.7116 33.8962 48.9585C33.8962 49.2048 33.7957 49.4467 33.6213 49.6211ZM45.0083 54.9165H37.9792C37.4614 54.9165 37.0417 54.4968 37.0417 53.979C37.0417 53.4614 37.4614 53.0415 37.9792 53.0415H45.0083C45.5261 53.0415 45.9458 53.4614 45.9458 53.979C45.9458 54.4968 45.5261 54.9165 45.0083 54.9165ZM45.0083 49.8957H37.9792C37.4614 49.8957 37.0417 49.476 37.0417 48.9582C37.0417 48.4406 37.4614 48.0207 37.9792 48.0207H45.0083C45.5261 48.0207 45.9458 48.4406 45.9458 48.9582C45.9458 49.476 45.5261 49.8957 45.0083 49.8957ZM45.0083 44.875H37.9792C37.4614 44.875 37.0417 44.4553 37.0417 43.9375C37.0417 43.4197 37.4614 43 37.9792 43H45.0083C45.5261 43 45.9458 43.4197 45.9458 43.9375C45.9458 44.4553 45.5261 44.875 45.0083 44.875Z" fill="#00EEBB"/></g><defs><filter id="filter0_d_38_1900" x="0.5" y="0.5" width="76.9668" height="85" filterUnits="userSpaceOnUse" color-interpolation-filters="sRGB"><feFlood flood-opacity="0" result="BackgroundImageFix"/><feColorMatrix in="SourceAlpha" type="matrix" values="0 0 0 0 0 0 0 0 0 0 0 0 0 0 0 0 0 0 127 0" result="hardAlpha"/><feOffset/><feGaussianBlur stdDeviation="13.25"/><feComposite in2="hardAlpha" operator="out"/><feColorMatrix type="matrix" values="0 0 0 0 0 0 0 0 0 0.933333 0 0 0 0 0.733333 0 0 0 0.26 0"/><feBlend mode="normal" in2="BackgroundImageFix" result="effect1_dropShadow_38_1900"/><feBlend mode="normal" in="SourceGraphic" in2="effect1_dropShadow_38_1900" result="shape"/></filter><radialGradient id="paint0_radial_38_1900" cx="0" cy="0" r="1" gradientUnits="userSpaceOnUse" gradientTransform="translate(38.5 42.5) rotate(90) scale(26.5)"><stop stop-color="#373737"/><stop offset="1" stop-color="#222222"/></radialGradient></defs></svg>