<svg xmlns="http://www.w3.org/2000/svg" fill="none" viewBox="16 16 53 53"><rect x="16" y="16" width="53" height="53" rx="4" fill="#222222"/><g filter="url(#filter0_d_38_1901)"><path d="M43 34.5312C38.3303 34.5312 34.5312 38.3303 34.5312 43C34.5312 47.6697 38.3303 51.4688 43 51.4688C47.6697 51.4688 51.4688 47.6697 51.4688 43C51.4688 38.3303 47.6697 34.5312 43 34.5312ZM46.0213 41.9825L42.938 45.295C42.7646 45.4812 42.523 45.5891 42.2686 45.5936C42.263 45.5937 42.2574 45.5938 42.2517 45.5938C42.0034 45.5938 41.7648 45.4951 41.5889 45.3191L40.0021 43.7323C39.6359 43.3663 39.6359 42.7726 40.0021 42.4065C40.3682 42.0404 40.9618 42.0404 41.3279 42.4065L42.2276 43.3062L44.6489 40.705C45.0017 40.326 45.5949 40.3048 45.9739 40.6575C46.3528 41.0103 46.3741 41.6035 46.0213 41.9825Z" fill="#00EEBB"/><path d="M58.0625 42.0625H56.8163C56.5941 38.7164 55.1855 35.6012 52.7921 33.2078C50.3988 30.8145 47.2836 29.4059 43.9375 29.1837V27.9375C43.9375 27.4197 43.5177 27 43 27C42.4823 27 42.0625 27.4197 42.0625 27.9375V29.1837C38.7164 29.4059 35.6012 30.8146 33.2078 33.2079C30.8145 35.6012 29.4059 38.7164 29.1837 42.0625H27.9375C27.4197 42.0625 27 42.4823 27 43C27 43.5177 27.4197 43.9375 27.9375 43.9375H29.1837C29.4059 47.2836 30.8145 50.3988 33.2079 52.7922C35.6012 55.1855 38.7165 56.5941 42.0626 56.8163V58.0625C42.0626 58.5802 42.4823 59 43.0001 59C43.5178 59 43.9376 58.5802 43.9376 58.0625V56.8163C47.2836 56.5941 50.3989 55.1854 52.7922 52.7922C55.1856 50.3988 56.5942 47.2836 56.8164 43.9375H58.0625C58.5802 43.9375 59 43.5177 59 43C59 42.4823 58.5802 42.0625 58.0625 42.0625ZM43.9375 54.9366V53.7589C43.9375 53.2411 43.5177 52.8214 43 52.8214C42.4823 52.8214 42.0625 53.2411 42.0625 53.7589V54.9366C36.2064 54.4809 31.5191 49.7936 31.0634 43.9375H32.2411C32.7588 43.9375 33.1786 43.5177 33.1786 43C33.1786 42.4823 32.7588 42.0625 32.2411 42.0625H31.0634C31.5191 36.2064 36.2064 31.5191 42.0625 31.0634V32.2411C42.0625 32.7589 42.4823 33.1786 43 33.1786C43.5177 33.1786 43.9375 32.7589 43.9375 32.2411V31.0634C49.7936 31.5191 54.4809 36.2064 54.9366 42.0625H53.7589C53.2412 42.0625 52.8214 42.4823 52.8214 43C52.8214 43.5177 53.2412 43.9375 53.7589 43.9375H54.9366C54.4809 49.7936 49.7936 54.4809 43.9375 54.9366Z" fill="#00EEBB"/></g><defs><filter id="filter0_d_38_1901" x="0.5" y="0.5" width="85" height="85" filterUnits="userSpaceOnUse" color-interpolation-filters="sRGB"><feFlood flood-opacity="0" result="BackgroundImageFix"/><feColorMatrix in="SourceAlpha" type="matrix" values="0 0 0 0 0 0 0 0 0 0 0 0 0 0 0 0 0 0 127 0" result="hardAlpha"/><feOffset/><feGaussianBlur stdDeviation="13.25"/><feComposite in2="hardAlpha" operator="out"/><feColorMatrix type="matrix" values="0 0 0 0 0 0 0 0 0 0.933333 0 0 0 0 0.733333 0 0 0 0.26 0"/><feBlend mode="normal" in2="BackgroundImageFix" result="effect1_dropShadow_38_1901"/><feBlend mode="normal" in="SourceGraphic" in2="effect1_dropShadow_38_1901" result="shape"/></filter></defs></svg>