<svg xmlns="http://www.w3.org/2000/svg" fill="none" viewBox="17 16 53 53"><rect x="17" y="16" width="53" height="53" rx="4" fill="#222222"/><g filter="url(#filter0_d_38_1902)"><path d="M28.4246 32.9863C28.7064 34.1007 29.2846 35.1194 30.0972 35.9319L30.8411 36.6663L36.6764 30.8314L35.9325 30.097C35.1193 29.2845 34.1011 28.7063 32.9867 28.4245L27.3895 27.0095C27.2826 26.9826 27.1695 27.0138 27.0914 27.0913C27.0139 27.1695 26.9826 27.2826 27.0095 27.3895L28.4246 32.9863Z" fill="#00EEBB"/><path d="M35.0149 40.7864L40.8497 34.9521L38.0107 32.1489L32.1756 37.9837L35.0149 40.7864Z" fill="#00EEBB"/><path d="M45.2108 51.0469L51.0446 45.2131L54.5415 48.7099L48.7077 54.5437L45.2108 51.0469Z" fill="#00EEBB"/><path d="M55.8733 50.0366L50.0381 55.8714L51.9585 57.7919C52.7379 58.5706 53.7742 59 54.8762 59C55.9781 59 57.0144 58.5706 57.7939 57.7919C59.4021 56.1831 59.4021 53.5656 57.7939 51.9569L55.8733 50.0366Z" fill="#00EEBB"/><path d="M41.4346 44.1805C41.8008 43.8144 42.3944 43.8144 42.7605 44.1805L45.9899 47.4097L47.4111 45.9886L45.5677 44.1454C45.2015 43.7794 45.2015 43.1858 45.5677 42.8196C45.9338 42.4536 46.5274 42.4534 46.8936 42.8196L48.7369 44.6628L50.1831 43.2167L46.9538 39.9875C46.5876 39.6214 46.5876 39.0278 46.9538 38.6617C47.3199 38.2956 47.9135 38.2955 48.2796 38.6617L51.509 41.8909L52.9552 40.4448L51.1119 38.6016C50.7457 38.2356 50.7457 37.642 51.1119 37.2758C51.478 36.9097 52.0716 36.9096 52.4377 37.2758L54.2811 39.119L55.7273 37.6729L52.4979 34.4436C52.1318 34.0776 52.1318 33.4839 52.4979 33.1178C52.8641 32.7517 53.4578 32.7517 53.8238 33.1178L57.0532 36.3471L58.3794 35.0188C58.7796 34.6186 58.9999 34.0866 58.9999 33.5207C58.9999 32.9548 58.7795 32.4229 58.3794 32.0227L53.9769 27.6206C53.5767 27.2204 53.0447 27 52.4788 27C51.9129 27 51.3809 27.2203 50.9807 27.6205L27.6205 50.9813C27.2204 51.3813 27 51.9134 27 52.4792C27 53.0451 27.2204 53.577 27.6205 53.9772L32.0231 58.3794C32.4233 58.7796 32.9552 59 33.5212 59C34.0871 59 34.6191 58.7796 35.0192 58.3795L36.3476 57.0513L34.5043 55.2081C34.1382 54.8421 34.1382 54.2484 34.5043 53.8823C34.8704 53.5163 35.4641 53.5163 35.8302 53.8823L37.6735 55.7255L39.1197 54.2794L35.8903 51.0502C35.5242 50.6842 35.5242 50.0906 35.8903 49.7244C36.2564 49.3584 36.8501 49.3584 37.2162 49.7244L40.4456 52.9536L41.8918 51.5074L40.0484 49.6642C39.6823 49.2982 39.6823 48.7046 40.0484 48.3384C40.4146 47.9724 41.0083 47.9722 41.3744 48.3384L43.2178 50.1816L44.6639 48.7355L41.4346 45.5063C41.0684 45.1403 41.0684 44.5466 41.4346 44.1805Z" fill="#00EEBB"/></g><defs><filter id="filter0_d_38_1902" x="0.5" y="0.5" width="85.0001" height="85" filterUnits="userSpaceOnUse" color-interpolation-filters="sRGB"><feFlood flood-opacity="0" result="BackgroundImageFix"/><feColorMatrix in="SourceAlpha" type="matrix" values="0 0 0 0 0 0 0 0 0 0 0 0 0 0 0 0 0 0 127 0" result="hardAlpha"/><feOffset/><feGaussianBlur stdDeviation="13.25"/><feComposite in2="hardAlpha" operator="out"/><feColorMatrix type="matrix" values="0 0 0 0 0 0 0 0 0 0.933333 0 0 0 0 0.733333 0 0 0 0.26 0"/><feBlend mode="normal" in2="BackgroundImageFix" result="effect1_dropShadow_38_1902"/><feBlend mode="normal" in="SourceGraphic" in2="effect1_dropShadow_38_1902" result="shape"/></filter></defs></svg>