<svg xmlns="http://www.w3.org/2000/svg" fill="none" viewBox="16 16 53 53"><rect x="16" y="16" width="53" height="53" rx="4" fill="#222222"/><g filter="url(#filter0_d_38_1904)"><path d="M38.6126 32.735C38.8465 32.9631 38.9533 33.2918 38.8981 33.6138L38.6117 35.2834C38.4726 36.0945 39.3239 36.7129 40.0522 36.33L41.5517 35.5417C41.8409 35.3897 42.1864 35.3897 42.4756 35.5417L43.9751 36.33C44.7034 36.7129 45.5547 36.0945 45.4156 35.2834L45.1292 33.6138C45.074 33.2917 45.1807 32.9631 45.4147 32.735L46.6278 31.5526C47.217 30.9782 46.8919 29.9774 46.0776 29.8592L44.4012 29.6156C44.0778 29.5686 43.7982 29.3655 43.6536 29.0725L42.9039 27.5534C42.5398 26.8155 41.4875 26.8155 41.1234 27.5534L40.3737 29.0725C40.2291 29.3655 39.9495 29.5686 39.6261 29.6156L37.9497 29.8592C37.1354 29.9775 36.8103 30.9782 37.3995 31.5526L38.6126 32.735Z" fill="#00EEBB"/><path d="M41.1574 39.6624V43.126C41.1574 43.6458 41.5788 44.0672 42.0986 44.0672C42.6184 44.0672 43.0398 43.6458 43.0398 43.126V39.6624C43.0398 39.1426 42.6184 38.7212 42.0986 38.7212C41.5788 38.7212 41.1574 39.1425 41.1574 39.6624Z" fill="#00EEBB"/><path d="M44.2203 40.2918V43.1256C44.2203 43.6454 44.6417 44.0668 45.1615 44.0668C45.6812 44.0668 46.1026 43.6454 46.1026 43.1256V40.2918C46.1026 39.772 45.6812 39.3506 45.1615 39.3506C44.6417 39.3506 44.2203 39.7719 44.2203 40.2918Z" fill="#00EEBB"/><path d="M38.0945 40.2918V43.1256C38.0945 43.6454 38.5159 44.0668 39.0357 44.0668C39.5555 44.0668 39.9769 43.6454 39.9769 43.1256V40.2918C39.9769 39.772 39.5555 39.3506 39.0357 39.3506C38.5159 39.3506 38.0945 39.7719 38.0945 40.2918Z" fill="#00EEBB"/><path d="M34.0066 58.3333C34.0066 58.7015 34.3051 59 34.6733 59H49.524C49.8922 59 50.1907 58.7015 50.1907 58.3333V51.1553H34.0066V58.3333Z" fill="#00EEBB"/><path d="M27.2793 52.5661C27.6619 52.9656 28.296 52.9763 28.6933 52.594L32.0066 49.4087V46.6348L27.3066 51.1521C26.9086 51.5347 26.8966 52.1681 27.2793 52.5661Z" fill="#00EEBB"/><path d="M56.8906 51.1521L52.1906 46.6348V49.4087L55.5039 52.594C55.901 52.9761 56.5339 52.9657 56.9179 52.5661C57.3006 52.1681 57.2886 51.5348 56.8906 51.1521Z" fill="#00EEBB"/><path d="M49.5239 46.3418H34.6733C34.3051 46.3418 34.0066 46.6403 34.0066 47.0085V49.1551H50.1907V47.0085C50.1906 46.6403 49.8921 46.3418 49.5239 46.3418Z" fill="#00EEBB"/></g><defs><filter id="filter0_d_38_1904" x="0.5" y="0.5" width="83.1972" height="85" filterUnits="userSpaceOnUse" color-interpolation-filters="sRGB"><feFlood flood-opacity="0" result="BackgroundImageFix"/><feColorMatrix in="SourceAlpha" type="matrix" values="0 0 0 0 0 0 0 0 0 0 0 0 0 0 0 0 0 0 127 0" result="hardAlpha"/><feOffset/><feGaussianBlur stdDeviation="13.25"/><feComposite in2="hardAlpha" operator="out"/><feColorMatrix type="matrix" values="0 0 0 0 0 0 0 0 0 0.933333 0 0 0 0 0.733333 0 0 0 0.26 0"/><feBlend mode="normal" in2="BackgroundImageFix" result="effect1_dropShadow_38_1904"/><feBlend mode="normal" in="SourceGraphic" in2="effect1_dropShadow_38_1904" result="shape"/></filter></defs></svg>